 <svg  version="1.0" xmlns="http://www.w3.org/2000/svg"  width="300.000000pt" height="300.000000pt" viewBox="0 0 300.000000 300.000000"  preserveAspectRatio="xMidYMid meet">  <g transform="translate(0.000000,300.000000) scale(0.100000,-0.100000)" fill="#35487e" stroke="none"> <path d="M1235 2974 c-574 -102 -1046 -544 -1186 -1108 -17 -68 -32 -161 -35 -211 -6 -114 6 -91 42 83 14 70 30 135 35 145 5 9 7 17 4 17 -4 0 0 14 31 95 4 11 8 25 9 31 14 65 176 337 245 414 128 140 227 229 287 258 18 9 33 19 33 24 0 4 7 8 14 8 8 0 27 11 42 25 15 14 33 25 40 25 8 0 14 4 14 8 0 9 69 36 76 30 2 -3 -14 -13 -36 -24 -22 -10 -40 -22 -40 -26 0 -5 -5 -8 -11 -8 -5 0 -55 -30 -110 -66 -121 -82 -284 -240 -358 -349 -30 -44 -57 -82 -60 -85 -3 -3 -14 -21 -24 -40 -9 -19 -28 -54 -41 -77 -13 -23 -40 -90 -61 -150 -20 -59 -41 -113 -46 -119 -5 -6 -6 -14 -3 -17 3 -3 2 -12 -2 -19 -5 -7 -9 -22 -11 -33 -1 -11 -7 -59 -13 -108 -13 -102 -12 -394 1 -419 5 -9 10 -37 10 -62 1 -25 6 -43 11 -40 4 3 8 0 8 -5 0 -15 -20 -14 -25 1 -2 7 -6 24 -9 38 -10 55 -47 215 -52 219 -10 10 -3 -110 11 -189 26 -148 64 -261 135 -405 145 -293 364 -516 650 -664 182 -94 419 -162 557 -160 l58 1 -45 14 c-39 13 -68 19 -117 28 -7 1 -15 5 -19 8 -3 4 -12 4 -19 2 -7 -3 -22 -1 -33 5 -10 5 -30 12 -44 15 -56 10 -149 39 -155 49 -4 7 1 8 13 3 52 -21 225 -62 299 -72 94 -12 371 -5 450 11 129 26 140 28 134 21 -4 -4 -19 -9 -35 -12 -15 -3 -31 -7 -36 -10 -5 -3 -21 -7 -36 -9 -67 -9 -189 -39 -200 -49 -11 -11 96 -6 179 9 136 23 256 62 385 124 143 69 227 124 341 223 247 213 421 516 484 840 21 107 26 226 8 196 -9 -17 -21 -65 -39 -160 -9 -47 -29 -95 -30 -70 0 7 7 43 15 80 14 63 27 424 15 417 -3 -2 -5 13 -6 32 -1 47 12 21 25 -50 16 -88 30 -104 31 -36 1 188 -104 503 -230 690 -229 339 -553 566 -930 650 -97 22 -296 37 -245 18 17 -6 37 -13 45 -16 8 -3 21 -7 28 -9 50 -10 4 -15 -138 -15 -91 0 -178 -1 -195 -4 -16 -2 -48 -6 -70 -10 -76 -11 -25 7 86 31 62 14 115 27 118 29 10 10 -148 2 -224 -11z m545 -93 c279 -60 513 -186 714 -388 202 -201 336 -454 393 -740 24 -122 24 -385 -1 -508 -114 -572 -536 -1005 -1099 -1127 -139 -30 -429 -32 -557 -4 -501 109 -893 449 -1059 919 -56 160 -74 272 -75 462 0 137 4 189 22 271 31 143 65 244 123 362 67 135 147 246 263 363 227 228 487 359 805 405 129 18 347 11 471 -15z m-764 -17 c-28 -13 -57 -24 -66 -24 -9 0 -21 -5 -28 -12 -6 -6 -15 -9 -18 -5 -10 10 -7 11 71 40 89 32 104 33 41 1z m1012 1 c12 -4 22 -11 22 -16 0 -11 -14 -12 -24 -1 -4 4 -11 7 -14 8 -37 6 -72 18 -72 24 0 7 31 2 88 -15z m146 -67 c22 -13 43 -25 46 -28 3 -3 21 -14 42 -25 66 -36 149 -95 154 -110 4 -8 10 -15 16 -15 5 0 15 -6 22 -12 7 -7 33 -31 57 -54 171 -160 322 -403 382 -614 35 -123 38 -140 28 -140 -5 0 -15 24 -21 53 -73 313 -300 645 -565 824 -38 26 -72 50 -75 53 -3 3 -18 12 -35 20 -16 8 -32 17 -35 21 -3 3 -22 13 -42 22 -21 10 -38 20 -38 22 0 11 25 4 64 -17z m742 -1660 c-8 -42 -36 -133 -46 -150 -6 -10 -10 -23 -10 -28 0 -12 -60 -142 -70 -150 -3 -3 -11 -16 -18 -30 -71 -144 -198 -291 -383 -444 -26 -21 -206 -136 -213 -136 -3 0 -40 -16 -82 -36 -76 -36 -183 -69 -191 -60 -3 3 21 12 53 22 75 21 209 85 297 141 37 24 70 43 73 43 3 0 45 33 92 74 101 85 209 202 277 300 55 79 152 268 161 315 4 17 10 31 15 31 5 0 9 15 9 34 0 19 5 38 10 41 6 3 10 17 10 31 0 13 5 24 10 24 6 0 8 -10 6 -22z m-2771 -137 c6 -35 77 -191 86 -191 5 0 9 -5 9 -10 0 -11 84 -144 122 -195 37 -49 209 -216 274 -266 32 -25 85 -61 117 -79 31 -17 57 -36 57 -42 0 -30 -250 152 -353 257 -100 102 -136 151 -238 320 -42 69 -109 232 -109 265 0 11 32 -42 35 -59z m736 -807 c33 -17 48 -29 40 -32 -8 -3 -17 0 -19 7 -2 6 -10 11 -17 11 -20 0 -65 22 -65 32 0 11 0 11 61 -18z"/> <path d="M1234 2715 l30 -24 -62 -18 c-34 -10 -62 -22 -62 -26 0 -19 36 -18 77 2 53 25 66 21 35 -12 -12 -13 -22 -27 -22 -30 0 -11 -120 -209 -140 -232 -24 -27 -32 -57 -20 -75 8 -13 11 -13 24 0 7 8 43 74 80 145 36 72 66 122 66 113 0 -11 5 -15 15 -12 11 5 13 2 9 -10 -7 -19 16 -22 34 -4 9 9 12 8 12 -4 0 -9 -11 -19 -24 -22 -18 -4 -23 -11 -19 -26 4 -14 -7 -36 -31 -67 -37 -47 -41 -66 -15 -71 8 -1 26 20 42 52 27 51 67 81 67 50 0 -8 -4 -14 -10 -14 -5 0 -10 -6 -10 -14 0 -7 -10 -20 -22 -29 -18 -12 -21 -18 -11 -28 10 -10 17 -9 35 8 17 16 28 19 39 12 12 -6 21 -4 30 7 10 13 9 16 -10 21 -19 5 -21 10 -15 41 7 34 6 35 -20 28 -30 -7 -36 9 -6 19 11 3 20 12 20 19 0 8 6 19 14 26 17 13 10 40 -9 40 -7 0 -15 -6 -18 -12 -2 -7 -8 -9 -13 -5 -5 5 6 21 24 36 30 24 32 28 18 40 -13 11 -17 11 -22 -3 -9 -23 -22 -20 -26 7 -3 20 -5 18 -26 -16 -12 -21 -27 -35 -32 -32 -15 10 46 82 75 89 25 6 34 29 15 41 -5 3 -19 1 -31 -6 -18 -9 -24 -8 -31 5 -6 10 -22 16 -46 16 l-37 -1 29 -24z"/> <path d="M1783 2686 c3 -8 -4 -48 -15 -89 l-21 -76 -48 -6 c-50 -7 -68 -20 -52 -36 6 -6 22 -5 42 2 44 16 50 4 16 -31 -24 -25 -36 -30 -77 -30 -62 0 -54 -15 12 -24 58 -8 83 3 104 42 16 29 15 30 35 -44 14 -52 31 -66 73 -62 l33 3 -31 17 c-21 11 -38 34 -53 67 -30 71 -28 79 24 87 46 6 64 19 48 35 -5 5 -25 2 -48 -6 -52 -17 -55 -7 -20 79 14 36 23 70 20 76 -10 16 -48 12 -42 -4z"/> <path d="M690 2469 c0 -67 2 -120 4 -118 2 2 14 42 26 88 23 91 21 125 -10 141 -19 10 -20 7 -20 -111z"/> <path d="M1222 2488 c-18 -18 -15 -40 6 -36 9 2 18 13 20 26 4 24 -7 29 -26 10z"/> <path d="M2426 2481 c-4 -5 -27 -17 -52 -27 -44 -17 -45 -17 -60 4 -19 28 -38 28 -31 2 3 -11 1 -20 -4 -20 -5 0 -9 5 -9 11 0 8 -5 8 -15 -1 -12 -10 -16 -9 -21 4 -5 14 -9 12 -20 -10 -20 -39 -18 -42 31 -50 25 -3 45 -10 45 -15 0 -18 -26 -20 -68 -5 -24 9 -44 11 -47 6 -7 -11 52 -50 75 -50 8 0 33 -9 55 -20 l40 -19 -60 5 c-33 3 -68 8 -77 10 -20 6 -24 -6 -7 -23 8 -8 6 -14 -9 -22 -15 -8 -28 -4 -66 19 -51 33 -66 37 -66 18 0 -23 15 -37 53 -53 l37 -15 -22 -31 -23 -30 -23 28 -24 28 7 -30 c8 -36 32 -75 45 -75 6 0 25 20 42 45 18 25 35 45 39 45 4 0 24 -10 44 -21 20 -12 38 -19 42 -16 12 12 -8 39 -37 50 -37 14 -39 27 -5 27 29 0 33 14 8 30 -14 8 -12 9 12 4 17 -4 40 -11 53 -15 29 -11 82 -12 82 -1 0 13 -15 29 -39 42 -33 17 -11 30 52 30 46 0 48 1 45 27 -2 20 -9 27 -30 30 -22 3 -26 0 -22 -12 4 -10 0 -15 -13 -15 -13 0 -19 8 -21 25 -2 22 3 25 48 31 38 5 50 11 50 24 0 22 -26 45 -34 31z m-89 -106 c-13 -27 -43 -36 -33 -9 3 9 6 20 6 25 0 5 9 9 19 9 17 0 18 -3 8 -25z"/> <path d="M791 2447 c-10 -13 -17 -14 -27 -6 -9 8 -15 5 -24 -11 -6 -11 -8 -25 -5 -30 3 -5 -21 -54 -54 -108 -34 -55 -61 -104 -61 -111 0 -7 9 -9 28 -5 38 9 50 21 58 57 3 18 17 52 30 77 l23 45 -6 -72 c-5 -64 -4 -73 11 -73 10 0 19 11 23 30 7 36 16 38 31 6 7 -17 7 -27 -1 -35 -8 -8 -6 -11 10 -11 16 0 23 -9 30 -37 12 -52 34 -52 67 -2 21 31 25 44 16 53 -8 8 -15 7 -24 -6 -18 -25 -26 -22 -26 7 0 15 -6 25 -15 25 -18 0 -37 34 -25 46 4 5 10 29 12 54 2 35 -1 45 -14 48 -9 2 -22 -7 -29 -19 -10 -20 -12 -20 -21 -6 -5 11 -5 24 2 37 6 12 10 31 8 42 -3 20 -4 20 -17 5z"/> <path d="M2127 2403 c-26 -7 -15 -28 14 -28 15 0 25 7 27 18 3 17 -6 19 -41 10z"/> <path d="M1307 2244 c-49 -13 -93 -27 -99 -30 -9 -6 -6 -27 8 -75 3 -12 -8 -23 -35 -37 -22 -12 -49 -27 -60 -34 -18 -11 -24 -9 -49 15 -15 15 -33 27 -38 27 -6 0 -41 -31 -78 -70 l-68 -70 -104 0 -103 0 31 -52 c17 -29 88 -152 158 -273 70 -121 153 -265 185 -320 259 -447 343 -593 394 -682 25 -46 48 -83 51 -83 6 0 24 32 351 600 125 217 280 487 346 600 l119 205 -99 3 -100 3 -69 69 c-39 39 -76 70 -82 70 -7 0 -23 -11 -36 -25 -13 -14 -27 -25 -31 -25 -3 0 -31 15 -61 33 -53 31 -54 33 -46 67 4 19 6 40 4 46 -4 10 -128 50 -176 56 -21 3 -27 -3 -40 -39 l-14 -43 -64 0 -63 0 -19 45 c-11 25 -21 45 -22 44 -2 0 -43 -11 -91 -25z m78 -73 l11 -34 106 -2 106 -1 11 38 c13 42 22 45 83 26 l40 -12 -6 -48 c-5 -34 -3 -48 5 -48 11 0 112 -55 151 -82 14 -10 22 -8 48 17 l30 29 43 -42 42 -42 -93 0 c-91 0 -95 1 -159 40 -80 48 -136 67 -230 79 -137 17 -266 -11 -384 -84 -55 -33 -61 -35 -150 -35 l-94 0 42 42 43 42 30 -29 c28 -27 33 -28 53 -15 79 50 133 80 145 80 11 0 12 10 7 49 l-7 49 39 10 c59 16 75 11 88 -27z m295 -131 c36 -12 83 -33 105 -46 l40 -24 -325 1 -325 0 68 35 c37 19 93 41 125 49 81 21 229 14 312 -15z m493 -187 c-15 -27 -37 -64 -49 -83 -12 -19 -33 -59 -48 -88 l-26 -52 -548 0 -547 0 -52 93 c-29 50 -64 111 -78 135 l-26 42 701 0 701 0 -28 -47z m-1189 -261 c8 -13 -11 -35 -23 -28 -16 10 -14 36 3 36 8 0 17 -4 20 -8z m1006 -57 l-19 -30 -470 -3 -470 -2 -16 29 c-8 17 -15 31 -15 33 0 2 227 3 504 3 l505 0 -19 -30z m-40 -68 c0 -4 -7 -19 -16 -32 l-16 -25 -417 0 -417 0 -17 29 c-9 16 -17 31 -17 33 0 1 202 3 450 3 247 0 450 -4 450 -8z m-650 -90 c0 -4 -7 -19 -16 -32 -15 -22 -23 -25 -83 -25 -63 0 -68 2 -84 29 -9 16 -17 31 -17 33 0 1 45 3 100 3 55 0 100 -4 100 -8z m182 -24 c-15 -32 -18 -33 -77 -33 -56 0 -62 2 -78 29 -9 16 -17 31 -17 33 0 1 42 3 94 3 l93 0 -15 -32z m208 29 c0 -2 -8 -17 -17 -33 -16 -27 -22 -29 -79 -29 -55 0 -62 2 -72 25 -7 14 -12 29 -12 33 0 4 41 7 90 7 50 0 90 -2 90 -3z m210 0 c0 -2 -8 -17 -17 -33 -16 -27 -21 -29 -83 -29 -62 0 -67 2 -83 29 -9 16 -17 31 -17 33 0 1 45 3 100 3 55 0 100 -2 100 -3z m-650 -87 c0 -20 -34 -65 -49 -65 -15 0 -24 11 -49 63 -2 4 19 7 47 7 28 0 51 -2 51 -5z m75 -25 c20 -39 20 -40 -20 -40 l-35 0 17 35 c9 19 18 35 20 35 1 0 9 -13 18 -30z m104 -7 c-12 -21 -23 -39 -25 -41 -2 -4 -44 63 -44 72 0 3 21 6 46 6 l46 0 -23 -37z m211 31 c0 -9 -42 -76 -44 -72 -2 2 -13 20 -25 41 l-23 37 46 0 c25 0 46 -3 46 -6z m90 -59 c0 -3 -16 -5 -35 -5 -40 0 -40 1 -19 42 l16 30 19 -31 c10 -17 19 -34 19 -36z m120 59 c0 -18 -37 -64 -52 -64 -14 0 -48 45 -48 65 0 3 23 5 50 5 28 0 50 -3 50 -6z m-327 -34 l18 -30 -40 0 -40 0 17 30 c9 16 19 30 22 30 3 0 14 -13 23 -30z m-154 -68 c19 -36 -4 -52 -74 -52 -70 0 -79 9 -53 50 17 27 112 29 127 2z m195 2 c4 -9 4 -25 1 -35 -5 -16 -17 -19 -65 -19 -50 0 -60 3 -65 20 -11 34 12 50 70 50 40 0 54 -4 59 -16z m196 -3 c23 -43 14 -51 -54 -51 -70 0 -81 7 -72 46 6 22 11 24 61 24 43 0 56 -4 65 -19z m-331 -103 l23 -38 -46 0 -46 0 20 41 c12 23 23 39 24 37 1 -1 13 -20 25 -40z m190 8 c12 -18 21 -36 21 -40 0 -3 -20 -6 -44 -6 l-44 0 21 40 c12 22 23 40 24 40 1 0 11 -15 22 -34z m-279 19 c0 -16 -33 -66 -41 -63 -6 2 -19 18 -30 36 l-21 32 46 0 c25 0 46 -2 46 -5z m185 -25 c-19 -37 -26 -37 -47 0 l-17 30 40 0 40 0 -16 -30z m206 -2 c-11 -18 -24 -34 -30 -36 -8 -3 -41 47 -41 63 0 3 21 5 46 5 l46 0 -21 -32z m-253 -88 c9 -16 19 -30 22 -30 3 0 14 14 23 30 17 28 23 30 74 30 62 0 89 -20 72 -52 -9 -16 -27 -18 -169 -18 -101 0 -161 4 -165 11 -4 5 -4 21 -1 35 6 22 11 24 67 24 56 0 61 -2 77 -30z m151 -95 l-21 -35 -107 0 -107 0 -17 29 c-9 16 -17 32 -17 35 0 3 65 6 145 6 l144 0 -20 -35z m-41 -62 c-30 -63 -28 -61 -85 -59 -45 1 -58 6 -74 26 -10 14 -19 28 -19 33 0 4 41 7 91 7 50 0 89 -3 87 -7z m-50 -90 c-37 -76 -38 -76 -61 -28 l-17 35 41 0 c22 0 39 -3 37 -7z"/> <path d="M1023 1853 c-25 -5 -32 -33 -8 -33 12 0 15 -13 15 -60 0 -47 -3 -60 -15 -60 -8 0 -15 -7 -15 -15 0 -12 13 -15 55 -15 42 0 55 3 55 15 0 8 -7 15 -15 15 -12 0 -15 16 -15 80 0 86 1 84 -57 73z"/> <path d="M1280 1849 c-29 -12 -40 -27 -40 -55 0 -36 34 -57 80 -51 27 3 40 1 40 -7 0 -35 -54 -48 -75 -19 -11 15 -15 15 -29 3 -27 -22 4 -45 60 -45 38 0 50 5 70 28 29 34 32 95 7 126 -21 25 -77 35 -113 20z m75 -40 c14 -42 -45 -66 -61 -24 -10 25 4 45 30 45 16 0 27 -7 31 -21z"/> <path d="M1583 1848 c-40 -19 -42 -68 -2 -68 14 0 19 7 19 26 0 22 4 25 28 22 19 -2 28 -9 30 -25 3 -18 -7 -27 -48 -48 -43 -22 -70 -53 -70 -81 0 -2 41 -4 90 -4 l90 0 0 35 c0 35 -13 47 -23 21 -7 -17 -85 -32 -99 -18 -13 13 4 24 57 37 27 8 45 20 55 39 14 26 14 28 -13 52 -30 26 -75 31 -114 12z"/> <path d="M1893 1850 c-32 -13 -47 -47 -34 -76 12 -27 48 -39 91 -30 33 6 35 4 20 -25 -13 -23 -48 -25 -65 -2 -7 10 -19 14 -29 10 -24 -9 -16 -29 19 -46 44 -21 102 0 121 46 17 41 11 83 -15 107 -23 21 -78 29 -108 16z m72 -55 c0 -25 -4 -30 -24 -30 -32 0 -49 28 -31 50 7 9 23 15 34 13 16 -2 21 -10 21 -33z"/> <path d="M2470 1932 c0 -6 5 -23 11 -39 7 -20 12 -24 18 -14 6 10 20 11 51 6 l42 -7 -33 -34 c-19 -19 -35 -30 -37 -24 -2 5 -7 10 -12 10 -4 0 -1 -22 8 -50 15 -49 32 -66 32 -34 0 9 16 35 35 59 38 45 82 66 96 43 17 -27 17 0 1 45 -17 48 -32 61 -32 28 0 -12 -9 -21 -25 -25 -31 -8 -114 12 -137 32 -11 9 -18 10 -18 4z"/> <path d="M326 1899 c-29 -34 -34 -84 -12 -115 20 -27 28 -14 14 23 -14 37 -6 61 24 72 27 10 86 -4 111 -27 37 -33 12 -82 -42 -82 -32 0 -25 -17 11 -24 17 -3 32 -5 32 -4 1 2 9 17 19 35 42 76 -1 153 -86 153 -38 0 -49 -5 -71 -31z"/> <path d="M2263 1725 c7 -71 40 -160 57 -150 5 3 10 -3 10 -14 0 -12 -7 -21 -16 -21 -8 0 -12 5 -9 10 4 6 -4 23 -17 39 -13 16 -28 37 -35 47 -11 17 -12 17 -12 -9 -1 -33 17 -79 51 -128 l25 -37 33 49 c32 47 60 129 60 177 0 35 -19 17 -48 -47 l-26 -56 -6 50 c-7 47 -53 155 -67 155 -3 0 -3 -29 0 -65z"/> <path d="M722 1768 c-23 -30 -45 -86 -52 -133 l-7 -50 -28 63 c-34 77 -49 80 -40 10 8 -61 32 -118 68 -166 l25 -33 16 28 c46 84 75 163 59 163 -5 0 -24 -25 -42 -55 -37 -59 -51 -68 -51 -34 0 12 5 19 12 17 19 -7 49 70 55 140 6 63 3 72 -15 50z"/> <path d="M266 1698 c-9 -35 -7 -78 4 -78 6 0 10 7 10 15 0 16 12 18 48 9 18 -5 22 -13 22 -45 0 -31 -4 -39 -17 -39 -36 0 -63 13 -64 29 -2 22 -16 -37 -18 -71 0 -16 4 -28 9 -28 6 0 10 7 10 16 0 15 9 16 73 10 47 -4 76 -12 83 -22 10 -12 13 -6 16 33 5 56 3 63 -15 40 -16 -20 -71 -12 -63 10 3 8 6 26 6 39 0 19 5 24 26 24 15 0 32 -8 39 -17 11 -15 13 -10 16 35 4 51 -3 67 -15 36 -5 -13 -17 -14 -73 -9 -40 4 -73 13 -79 21 -10 12 -13 11 -18 -8z"/> <path d="M2553 1712 c-10 -6 -11 -27 -2 -92 5 -47 12 -86 14 -88 2 -3 17 -1 32 3 l28 7 -27 14 c-48 25 -35 41 45 53 63 9 73 8 84 -6 18 -24 20 -15 10 47 -8 46 -11 51 -18 33 -5 -15 -17 -23 -31 -23 -13 0 -47 -3 -75 -6 -45 -6 -53 -4 -53 10 0 8 9 21 20 28 11 7 20 16 20 20 0 10 -32 10 -47 0z"/> <path d="M574 1518 c10 -64 36 -139 63 -178 33 -50 29 -56 -16 -21 -21 17 -41 31 -44 31 -4 0 2 -21 11 -46 12 -31 38 -66 84 -110 38 -35 68 -68 68 -73 0 -6 -23 6 -51 25 -74 50 -84 47 -45 -14 38 -58 71 -88 136 -123 62 -33 96 -69 65 -69 -8 0 -38 9 -67 20 -28 11 -53 18 -55 16 -2 -1 6 -15 18 -29 30 -39 95 -73 164 -87 67 -14 126 -39 90 -39 -11 0 -55 8 -98 18 l-79 19 27 -28 c15 -15 50 -41 78 -56 46 -26 62 -29 135 -28 45 0 82 -3 82 -7 0 -11 -83 -22 -125 -17 -19 2 -35 2 -35 1 0 -8 98 -45 137 -52 23 -5 63 -4 90 1 26 5 77 12 113 17 67 8 66 10 -9 31 -24 6 -55 24 -70 40 -27 30 -204 160 -209 155 -5 -4 36 -84 59 -117 28 -38 23 -43 -12 -14 -17 14 -37 26 -45 26 -10 0 -14 12 -14 43 0 43 -11 64 -85 165 -16 23 -34 41 -39 42 -12 0 3 -89 20 -122 16 -31 15 -33 -19 -17 -22 10 -25 19 -29 73 -3 33 -18 102 -33 151 l-29 90 -8 -40 c-4 -22 -5 -57 -2 -77 6 -41 -1 -46 -31 -24 -18 13 -18 15 -1 70 15 47 16 70 9 139 l-9 82 -17 -32 c-9 -18 -20 -53 -24 -78 -4 -35 -9 -43 -18 -35 -15 13 -6 62 23 130 23 52 38 140 24 140 -5 0 -22 -24 -38 -54 l-28 -54 -33 36 c-18 20 -42 56 -54 80 -11 23 -23 42 -26 42 -3 0 -3 -19 1 -42z m394 -621 c2 -11 -3 -17 -16 -17 -15 0 -19 5 -15 20 6 24 26 21 31 -3z m227 -143 c35 -32 37 -37 22 -46 -10 -5 -28 -8 -40 -6 -17 2 -22 10 -22 32 -1 16 -6 31 -13 34 -7 2 -12 8 -12 13 0 19 28 8 65 -27z"/> <path d="M2414 1535 c-6 -16 -31 -53 -55 -82 l-43 -51 -27 51 c-14 28 -30 52 -36 54 -15 5 2 -106 25 -157 30 -68 34 -96 17 -110 -13 -10 -15 -8 -15 13 0 30 -30 127 -40 127 -4 0 -10 -36 -14 -80 -5 -64 -3 -90 12 -135 19 -56 19 -56 -2 -70 -30 -22 -36 -19 -30 15 4 16 3 51 -1 77 l-7 48 -30 -85 c-20 -57 -30 -107 -31 -152 -2 -50 -6 -68 -17 -71 -8 -3 -23 -8 -34 -12 -17 -8 -17 -6 -2 23 9 18 19 53 22 79 l6 48 -32 -35 c-66 -74 -93 -122 -98 -171 -4 -39 -9 -50 -26 -55 -11 -3 -31 -16 -43 -27 -28 -25 -30 -15 -4 21 19 28 61 107 61 116 0 11 -164 -110 -205 -151 -33 -32 -53 -43 -89 -48 -66 -10 -67 -25 -2 -25 30 0 67 -5 83 -11 47 -18 127 -13 197 12 66 23 89 41 41 31 -32 -6 -135 7 -135 17 0 4 37 7 83 7 62 -1 91 4 117 18 42 22 119 79 120 87 0 3 -35 -2 -77 -12 -95 -23 -115 -24 -90 -5 9 7 45 19 80 26 70 13 136 47 166 87 12 14 20 27 18 29 -1 2 -29 -6 -60 -18 -32 -11 -60 -18 -63 -15 -14 14 8 35 76 72 55 30 81 53 111 94 57 80 52 91 -22 41 -24 -16 -45 -25 -47 -21 -2 5 26 37 62 71 45 43 70 76 80 106 8 24 12 44 8 44 -4 -1 -22 -14 -41 -30 -19 -16 -37 -28 -39 -25 -3 2 9 26 26 52 33 53 66 157 60 194 -3 23 -4 23 -14 -6z m-354 -635 c0 -11 -7 -20 -15 -20 -15 0 -21 21 -8 33 12 13 23 7 23 -13z m-190 -120 c0 -5 -4 -10 -10 -10 -5 0 -10 -16 -10 -35 0 -30 -3 -35 -24 -35 -13 0 -29 6 -35 14 -10 11 -5 20 21 45 33 31 58 40 58 21z"/> <path d="M2559 1462 c-4 -56 -2 -60 15 -38 15 20 156 10 156 -10 0 -8 5 -14 10 -14 6 0 10 25 10 55 0 30 -4 55 -10 55 -5 0 -10 -7 -10 -15 0 -23 -145 -22 -158 2 -7 12 -11 4 -13 -35z"/> <path d="M324 1426 c-59 -26 -80 -86 -50 -145 48 -91 186 -50 186 56 0 38 -25 72 -66 89 -39 16 -32 16 -70 0z m104 -58 c18 -18 14 -56 -7 -67 -33 -18 -97 -24 -120 -11 -30 16 -25 60 9 77 32 16 102 17 118 1z"/> <path d="M2544 1328 c-4 -24 -6 -50 -5 -58 5 -25 33 -50 57 -50 23 0 64 42 64 66 0 22 36 36 50 19 20 -24 3 -65 -30 -77 -35 -12 -30 -28 9 -28 24 0 29 5 40 48 9 38 9 55 0 75 -24 53 -79 46 -109 -13 -25 -49 -38 -57 -58 -36 -21 20 -8 45 34 65 l29 15 -25 7 c-44 12 -48 10 -56 -33z"/> <path d="M455 1199 c-14 -30 -112 -66 -137 -50 -21 13 -22 6 -7 -38 12 -34 29 -42 29 -12 0 13 15 25 51 40 59 24 59 23 1 -72 -22 -36 -36 -70 -33 -76 5 -7 32 -1 84 18 65 24 78 27 88 15 19 -23 22 -9 8 30 -15 40 -24 45 -32 17 -4 -17 -74 -57 -83 -48 -2 1 14 32 36 68 36 61 38 69 27 98 -14 37 -19 38 -32 10z"/> <path d="M2495 1128 c-13 -29 -26 -64 -30 -78 -7 -21 -6 -23 6 -13 24 19 142 -27 150 -58 5 -21 8 -19 27 25 12 27 20 52 17 55 -4 3 -10 0 -14 -7 -6 -9 -15 -10 -39 -1 -41 14 -33 26 24 35 40 6 48 11 60 40 19 45 19 44 -23 24 -70 -33 -83 -34 -83 -7 0 25 -16 37 -51 37 -15 0 -27 -15 -44 -52z m79 -20 c17 -28 -4 -40 -42 -26 -31 12 -40 27 -25 42 12 12 56 2 67 -16z"/> <path d="M2414 963 c-10 -16 -28 -45 -41 -65 -26 -43 -31 -67 -9 -49 18 15 129 -50 136 -81 4 -17 14 -7 52 55 l47 76 -22 16 c-29 20 -40 19 -27 -4 14 -26 13 -44 -4 -66 -12 -17 -17 -17 -45 -5 -21 8 -30 18 -27 27 4 8 6 17 6 19 0 2 12 4 28 4 26 1 26 1 7 16 -46 35 -53 36 -51 2 1 -38 -11 -43 -43 -19 -20 15 -22 21 -12 39 7 14 21 22 36 22 30 0 33 15 5 30 -16 9 -22 6 -36 -17z"/> <path d="M504 950 c-30 -12 -64 -58 -64 -87 0 -34 24 -77 56 -98 22 -14 30 -15 49 -5 13 7 28 9 34 6 17 -11 13 3 -10 40 -20 34 -43 47 -33 20 8 -21 -33 -41 -52 -25 -23 19 -16 55 17 83 37 31 76 43 98 29 20 -13 26 -60 10 -79 -18 -22 -3 -29 26 -10 25 17 33 36 15 36 -5 0 -10 9 -10 19 0 25 -65 81 -93 80 -12 0 -32 -4 -43 -9z"/> <path d="M2308 806 c-33 -28 -35 -37 -8 -33 15 1 26 -10 45 -50 13 -29 21 -53 17 -53 -4 0 -30 10 -59 22 -42 17 -52 25 -47 40 8 26 -2 22 -41 -17 -40 -39 -43 -49 -16 -40 12 4 51 -8 101 -31 106 -49 113 -42 67 71 -20 47 -33 93 -30 101 7 19 2 18 -29 -10z"/> <path d="M664 760 c-12 -4 -31 -21 -43 -37 -18 -22 -21 -35 -16 -63 3 -19 6 -51 6 -71 0 -27 7 -43 29 -64 28 -27 58 -29 32 -3 -7 7 -12 20 -12 30 0 15 8 18 44 18 79 0 123 66 91 135 -26 54 -79 76 -131 55z m94 -32 c40 -40 -47 -153 -103 -132 -41 16 -18 90 38 124 37 23 49 24 65 8z"/> <path d="M2112 630 c-45 -32 -53 -45 -24 -36 26 9 108 -110 91 -130 -19 -23 3 -16 50 16 39 26 41 30 20 30 -19 0 -34 13 -62 57 -24 36 -35 63 -31 75 7 24 4 23 -44 -12z"/> <path d="M870 625 c10 -12 5 -26 -26 -75 -28 -44 -44 -59 -56 -56 -25 6 -22 -7 5 -23 12 -8 33 -21 46 -30 23 -14 23 -14 16 7 -10 32 62 144 88 136 28 -9 20 1 -23 30 -45 29 -70 35 -50 11z"/> <path d="M1995 562 c-29 -16 -29 -17 -7 -20 14 -2 30 -18 42 -42 11 -22 20 -42 20 -45 0 -3 -31 10 -69 29 -62 32 -72 34 -100 23 -34 -13 -41 -27 -13 -27 12 0 27 -19 45 -55 30 -61 33 -81 15 -88 -7 -2 -10 -7 -7 -11 8 -8 79 24 79 36 0 4 -8 8 -19 8 -21 0 -30 10 -54 62 l-16 38 84 -42 c46 -23 87 -39 91 -35 4 4 -7 41 -25 82 -27 61 -31 78 -21 90 17 21 -6 20 -45 -3z"/> <path d="M990 565 c0 -3 5 -13 11 -23 15 -24 -44 -147 -67 -138 -8 3 -14 2 -14 -2 0 -14 69 -42 75 -32 3 6 1 10 -4 10 -16 0 -12 40 8 85 l18 40 12 -45 c30 -109 38 -134 49 -138 6 -2 27 31 46 72 24 53 40 76 52 76 22 0 9 12 -29 28 -27 12 -28 11 -22 -9 7 -22 -12 -99 -25 -99 -3 0 -14 33 -24 74 -17 66 -22 75 -52 90 -19 8 -34 13 -34 11z"/> <path d="M1753 473 c-28 -5 -30 -19 -5 -25 14 -4 22 -22 30 -63 11 -51 10 -61 -5 -77 -37 -41 -73 -17 -88 59 -11 50 -11 60 3 70 9 7 13 15 10 18 -8 9 -98 -16 -98 -27 0 -5 4 -7 9 -3 13 8 20 -6 31 -66 14 -72 33 -91 88 -87 34 2 49 9 63 28 17 22 18 32 8 88 -10 57 -10 64 7 77 18 14 18 14 -6 13 -14 0 -35 -3 -47 -5z"/> <path d="M1273 463 c-58 -11 -94 -109 -58 -160 32 -45 146 -51 153 -7 2 10 11 25 19 31 18 14 13 17 -49 28 -24 4 -38 2 -38 -5 0 -5 7 -10 16 -10 25 0 14 -54 -12 -58 -37 -5 -57 25 -52 80 9 91 67 116 103 43 19 -39 19 -39 26 -15 11 39 10 62 -1 55 -6 -4 -16 -2 -23 3 -16 12 -57 20 -84 15z"/> </g> </svg> 